<svg width="11" height="23" viewBox="0 0 11 23" fill="none" xmlns="http://www.w3.org/2000/svg">
<path d="M1.494 18V6.228H5.256C6.072 6.228 6.792 6.318 7.416 6.498C8.052 6.678 8.55 6.984 8.91 7.416C9.282 7.836 9.468 8.406 9.468 9.126C9.468 9.678 9.324 10.2 9.036 10.692C8.748 11.172 8.346 11.502 7.83 11.682V11.754C8.478 11.898 9.012 12.204 9.432 12.672C9.864 13.128 10.08 13.752 10.08 14.544C10.08 15.324 9.882 15.972 9.486 16.488C9.102 17.004 8.568 17.388 7.884 17.64C7.2 17.88 6.426 18 5.562 18H1.494ZM3.582 11.088H5.076C5.892 11.088 6.486 10.938 6.858 10.638C7.23 10.338 7.416 9.936 7.416 9.432C7.416 8.856 7.224 8.448 6.84 8.208C6.456 7.968 5.88 7.848 5.112 7.848H3.582V11.088ZM3.582 16.38H5.346C6.21 16.38 6.876 16.224 7.344 15.912C7.812 15.588 8.046 15.096 8.046 14.436C8.046 13.812 7.818 13.362 7.362 13.086C6.906 12.798 6.234 12.654 5.346 12.654H3.582V16.38Z" fill="white"/>
</svg>
